<svg xmlns="http://www.w3.org/2000/svg" width="175.077" height="23.359" viewBox="0 0 175.077 23.359"><g transform="translate(0 0)"><path d="M103.421,725.223h9.556c5.638,0,9.269,2.9,9.269,7.836v.064c0,5.255-4.045,8.026-9.588,8.026H109.6v6.371h-6.18Zm9.11,11.085c2.2,0,3.535-1.147,3.535-2.9v-.064c0-1.911-1.338-2.93-3.567-2.93h-2.9v5.893Z" transform="translate(-103.421 -724.607)" fill="#ffc000"/><path d="M159.482,735.673v-.063a11.68,11.68,0,0,1,12.041-11.594c6.88,0,11.977,5.128,11.977,11.531v.064A11.681,11.681,0,0,1,171.459,747.2C164.579,747.2,159.482,742.076,159.482,735.673Zm17.71,0v-.063a5.794,5.794,0,0,0-5.733-6.02,5.682,5.682,0,0,0-5.638,5.957v.064a5.788,5.788,0,0,0,5.7,6.02A5.689,5.689,0,0,0,177.192,735.673Z" transform="translate(-138.806 -723.845)" fill="#ffc000"/><path d="M233.339,725.223h6.18v9.046l7.677-9.046h7.326l-8.44,9.588,8.727,12.709h-7.422l-5.606-8.282-2.262,2.516v5.766h-6.18Z" transform="translate(-185.425 -724.607)" fill="#ffc000"/><path d="M296.4,725.223h6.18v16.882h10.8v5.415H296.4Z" transform="translate(-225.226 -724.607)" fill="#ffc000"/><path d="M354.264,724.791h5.955l9.493,22.457h-6.626l-1.625-3.982h-8.6l-1.594,3.982h-6.5Zm5.415,13.666-2.485-6.339-2.516,6.339Z" transform="translate(-255.76 -724.335)" fill="#ffc000"/><path d="M418.281,725.223h8.6c7.962,0,12.581,4.587,12.581,11.021v.064c0,6.434-4.682,11.212-12.709,11.212h-8.473Zm8.7,16.819c3.7,0,6.148-2.038,6.148-5.638v-.063c0-3.568-2.453-5.638-6.148-5.638h-2.516v11.34Z" transform="translate(-302.159 -724.607)" fill="#ffc000"/><g transform="translate(145.544)"><path d="M498.365,723.586c2.135-.065,4.275-.009,6.415-.027q-.077,6.965-.157,13.935-3.045,0-6.087,0C498.473,732.857,498.451,728.221,498.365,723.586Z" transform="translate(-498.252 -723.554)"/><path d="M529.409,723.573c2.133-.023,4.269,0,6.4-.009q-.074,6.965-.155,13.935-3.045,0-6.09,0C529.512,732.856,529.472,728.214,529.409,723.573Z" transform="translate(-517.847 -723.559)"/><path d="M560.429,723.566q3.2,0,6.4,0-.078,6.968-.157,13.935h-6.087Q560.506,730.533,560.429,723.566Z" transform="translate(-537.427 -723.56)"/><path d="M500.2,768.609a3.319,3.319,0,1,1-1.989,4.062A3.337,3.337,0,0,1,500.2,768.609Z" transform="translate(-498.059 -751.849)"/><path d="M531.234,768.6a3.317,3.317,0,1,1-2.034,3.974A3.336,3.336,0,0,1,531.234,768.6Z" transform="translate(-517.635 -751.849)"/><path d="M562.258,768.6a3.318,3.318,0,1,1-2.055,3.965A3.338,3.338,0,0,1,562.258,768.6Z" transform="translate(-537.208 -751.85)"/></g></g></svg>